<svg width="13" height="14" viewBox="0 0 13 14" fill="none" xmlns="http://www.w3.org/2000/svg">
<path d="M10.818 1.27273H10.1816V0.636364C10.1816 0.467589 10.1146 0.305728 9.99525 0.186387C9.87591 0.0670452 9.71404 0 9.54527 0C9.3765 0 9.21463 0.0670452 9.09529 0.186387C8.97595 0.305728 8.90891 0.467589 8.90891 0.636364V1.27273H3.818V0.636364C3.818 0.467589 3.75095 0.305728 3.63161 0.186387C3.51227 0.0670452 3.35041 0 3.18163 0C3.01286 0 2.851 0.0670452 2.73166 0.186387C2.61232 0.305728 2.54527 0.467589 2.54527 0.636364V1.27273H1.90891C1.40259 1.27273 0.917001 1.47386 0.558977 1.83189C0.200953 2.18991 -0.000183105 2.6755 -0.000183105 3.18182V12.0909C-0.000183105 12.5972 0.200953 13.0828 0.558977 13.4408C0.917001 13.7989 1.40259 14 1.90891 14H10.818C11.3243 14 11.8099 13.7989 12.1679 13.4408C12.526 13.0828 12.7271 12.5972 12.7271 12.0909V3.18182C12.7271 2.6755 12.526 2.18991 12.1679 1.83189C11.8099 1.47386 11.3243 1.27273 10.818 1.27273ZM11.4544 12.0909C11.4544 12.2597 11.3873 12.4215 11.268 12.5409C11.1486 12.6602 10.9868 12.7273 10.818 12.7273H1.90891C1.74013 12.7273 1.57827 12.6602 1.45893 12.5409C1.33959 12.4215 1.27254 12.2597 1.27254 12.0909V6.36364H11.4544V12.0909ZM11.4544 5.09091H1.27254V3.18182C1.27254 3.01304 1.33959 2.85118 1.45893 2.73184C1.57827 2.6125 1.74013 2.54545 1.90891 2.54545H2.54527V3.18182C2.54527 3.35059 2.61232 3.51245 2.73166 3.63179C2.851 3.75114 3.01286 3.81818 3.18163 3.81818C3.35041 3.81818 3.51227 3.75114 3.63161 3.63179C3.75095 3.51245 3.818 3.35059 3.818 3.18182V2.54545H8.90891V3.18182C8.90891 3.35059 8.97595 3.51245 9.09529 3.63179C9.21463 3.75114 9.3765 3.81818 9.54527 3.81818C9.71404 3.81818 9.87591 3.75114 9.99525 3.63179C10.1146 3.51245 10.1816 3.35059 10.1816 3.18182V2.54545H10.818C10.9868 2.54545 11.1486 2.6125 11.268 2.73184C11.3873 2.85118 11.4544 3.01304 11.4544 3.18182V5.09091Z" fill="#718096"/>
</svg>
