<svg width="12" height="14" viewBox="0 0 12 14" fill="none" xmlns="http://www.w3.org/2000/svg">
<path d="M10.2489 1.7344C9.12301 0.623882 7.59595 -1.17012e-08 6.00367 0C4.4114 1.17012e-08 2.88434 0.623882 1.75844 1.7344C0.632528 2.84492 1.18634e-08 4.3511 0 5.92161C-1.18634e-08 7.49212 0.632528 8.99831 1.75844 10.1088L5.48717 13.7936C5.55295 13.859 5.6312 13.9109 5.71742 13.9463C5.80364 13.9818 5.89612 14 5.98952 14C6.08293 14 6.17541 13.9818 6.26163 13.9463C6.34785 13.9109 6.4261 13.859 6.49188 13.7936L10.2489 10.0739C11.3701 8.96803 12 7.46813 12 5.90417C12 4.3402 11.3701 2.8403 10.2489 1.7344ZM9.23713 9.07598L6.00367 12.2792L2.77022 9.07598C2.13141 8.44533 1.69651 7.64203 1.52049 6.76763C1.34446 5.89323 1.43522 4.98699 1.78129 4.16346C2.12736 3.33993 2.7132 2.63608 3.46476 2.14089C4.21632 1.6457 5.09985 1.38141 6.00367 1.38141C6.9075 1.38141 7.79103 1.6457 8.54259 2.14089C9.29415 2.63608 9.87999 3.33993 10.2261 4.16346C10.5721 4.98699 10.6629 5.89323 10.4869 6.76763C10.3108 7.64203 9.87594 8.44533 9.23713 9.07598Z" fill="#718096"/>
</svg>
